<?xml version="1.0" standalone="no"?>
<!DOCTYPE svg PUBLIC "-//W3C//DTD SVG 20010904//EN"
 "http://www.w3.org/TR/2001/REC-SVG-20010904/DTD/svg10.dtd">
<svg version="1.0" xmlns="http://www.w3.org/2000/svg"
 width="357.000000pt" height="357.000000pt" viewBox="0 0 357.000000 357.000000"
 preserveAspectRatio="xMidYMid meet">
<metadata>
Created by potrace 1.11, written by Peter Selinger 2001-2013
</metadata>
<g transform="translate(0.000000,357.000000) scale(0.100000,-0.100000)"
fill="#000000" stroke="none">
<path d="M2883 2229 c-17 -6 -23 -16 -23 -38 0 -25 5 -32 27 -37 33 -9 58 7
58 36 0 30 -33 51 -62 39z"/>
<path d="M2330 2218 c0 -6 16 -27 36 -45 52 -47 97 -46 147 5 20 21 37 41 37
45 0 14 -58 7 -70 -9 -28 -33 -48 -36 -72 -9 -22 26 -78 36 -78 13z"/>
<path d="M123 2085 c-48 -24 -70 -46 -100 -104 -25 -45 -15 -138 27 -271 22
-69 40 -132 40 -140 0 -21 47 -150 65 -177 18 -27 37 -22 80 18 17 15 49 44
72 64 l42 36 36 -35 c88 -86 117 -106 137 -95 22 12 51 75 62 134 4 22 21 78
38 125 58 167 70 306 31 372 -29 49 -103 91 -167 94 -49 2 -116 -12 -132 -29
-4 -3 -19 0 -35 9 -16 8 -54 17 -86 19 -49 5 -66 1 -110 -20z m171 -97 c26
-14 94 -12 113 3 25 21 106 15 141 -10 32 -23 35 -32 35 -109 -1 -69 -74 -168
-200 -268 l-39 -32 -29 29 c-15 16 -32 29 -37 29 -21 0 -110 104 -143 166 -50
94 -44 152 21 195 31 21 96 19 138 -3z m-127 -318 c20 -22 41 -40 47 -40 6 0
31 -20 54 -44 l44 -45 -48 -46 c-81 -77 -84 -76 -118 67 -16 68 -31 129 -34
136 -9 25 21 11 55 -28z m403 -17 c-6 -26 -13 -55 -15 -63 -9 -42 -38 -136
-46 -144 -10 -11 -43 10 -91 59 l-37 38 46 42 c25 24 53 49 62 56 9 8 32 27
50 42 18 15 36 26 39 23 2 -3 -1 -27 -8 -53z"/>
<path d="M1055 2101 c-3 -2 -5 -100 -5 -217 0 -212 0 -212 23 -216 50 -9 57
-1 57 66 l0 62 55 -1 c30 -1 56 -3 58 -6 2 -2 24 -31 50 -64 45 -59 48 -60 87
-57 45 5 45 5 27 24 -7 7 -29 36 -49 64 l-37 51 29 22 c47 34 63 66 61 122 -1
56 -25 106 -56 115 -11 4 -26 11 -34 17 -7 6 -20 13 -30 14 -27 6 -231 9 -236
4z m232 -80 c29 -15 44 -44 39 -73 -3 -13 -5 -30 -5 -39 -1 -9 -14 -22 -31
-29 -30 -12 -125 -21 -147 -12 -9 3 -13 29 -13 81 0 43 2 80 5 82 9 10 131 2
152 -10z"/>
<path d="M1579 2103 c-13 -3 -15 -31 -15 -214 1 -227 3 -234 55 -220 l26 7 0
212 c1 117 -2 212 -5 213 -24 4 -48 4 -61 2z"/>
<path d="M1830 2102 c-6 -2 -9 -88 -10 -218 l0 -214 70 -1 c39 0 86 -1 105 -1
19 0 62 1 96 1 l60 1 -3 33 -3 32 -121 0 -121 0 -1 61 -1 60 102 0 102 0 3 32
c4 36 13 34 -125 35 l-81 0 -1 57 0 56 117 0 117 0 0 34 0 34 -147 1 c-82 0
-152 -1 -158 -3z"/>
<path d="M2369 2101 c-69 -22 -107 -76 -100 -140 6 -51 29 -69 134 -103 88
-29 103 -37 111 -61 12 -34 -13 -61 -64 -66 -19 -1 -37 -3 -40 -4 -12 -3 -86
27 -102 40 -17 15 -19 14 -44 -33 -11 -20 -7 -24 39 -45 67 -32 176 -33 232
-4 52 27 76 81 62 136 -12 48 -28 60 -129 93 -98 32 -128 51 -121 77 14 50 99
67 177 34 44 -18 42 -19 51 17 6 21 2 30 -19 44 -30 19 -146 29 -187 15z"/>
<path d="M2757 2102 c-15 -3 -17 -25 -17 -220 l0 -217 127 2 c71 1 144 2 164
2 37 1 49 16 42 52 -3 13 -22 15 -116 14 -62 -1 -116 0 -122 2 -5 2 -10 29
-10 61 l1 57 99 2 c55 1 103 2 106 2 5 1 5 37 0 61 -1 3 -47 5 -103 5 l-103 0
-1 45 c0 25 1 50 3 56 2 6 46 10 118 10 70 -1 116 3 116 9 6 48 5 55 -10 56
-44 3 -280 4 -294 1z"/>
<path d="M3275 2092 c-53 -25 -74 -51 -81 -98 -4 -31 0 -47 18 -74 20 -29 36
-38 112 -61 49 -15 98 -37 110 -48 17 -18 18 -23 7 -45 -26 -47 -135 -48 -206
-2 -24 16 -26 16 -35 -10 -6 -15 -13 -30 -16 -35 -7 -13 86 -50 141 -56 65 -7
128 11 168 47 28 25 32 35 32 78 0 39 -5 56 -23 74 -18 20 -89 50 -147 63 -91
20 -108 92 -27 114 37 11 69 7 120 -15 19 -8 36 -13 37 -12 17 32 21 55 11 64
-37 35 -161 44 -221 16z"/>
<path d="M1086 1528 c-18 -10 -36 -40 -42 -72 -4 -24 29 -85 48 -87 57 -6 70
-3 92 21 55 58 25 138 -55 145 -14 1 -34 -2 -43 -7z m69 -44 c10 -10 14 -25
11 -38 -3 -12 -6 -24 -6 -28 0 -13 -55 -9 -68 4 -19 19 -14 45 10 62 28 20 33
20 53 0z"/>
<path d="M1302 1532 c-13 -4 -17 -161 -4 -163 68 -10 114 3 137 38 20 31 13
82 -14 107 -18 16 -92 27 -119 18z m86 -46 c14 -5 22 -15 22 -30 0 -30 -18
-46 -52 -46 -26 0 -28 3 -28 38 0 53 5 56 58 38z"/>
<path d="M1558 1524 c-29 -15 -49 -54 -43 -86 6 -33 57 -75 86 -72 13 1 30 3
36 3 17 1 43 43 45 72 3 40 -13 78 -34 85 -37 11 -65 11 -90 -2z m73 -43 c21
-16 22 -22 11 -45 -9 -20 -19 -26 -42 -26 -31 0 -36 9 -31 55 1 18 17 34 32
35 4 0 17 -8 30 -19z"/>
<path d="M1774 1532 c-11 -7 -15 -161 -5 -163 3 0 14 -2 24 -4 14 -3 17 4 17
36 0 21 5 39 10 39 6 0 10 -3 10 -8 0 -15 60 -73 70 -67 11 7 12 163 1 169
-18 12 -35 -15 -32 -51 3 -38 3 -38 -18 -19 -11 10 -23 27 -26 37 -8 23 -37
40 -51 31z"/>
<path d="M1988 1529 c-12 -8 -4 -40 9 -38 24 4 29 -5 28 -48 -2 -64 4 -81 23
-79 13 2 18 16 20 64 2 34 7 63 12 63 6 1 16 2 22 3 17 1 23 36 6 37 -51 4
-111 3 -120 -2z"/>
<path d="M2224 1529 c-29 -10 -54 -47 -54 -80 0 -29 40 -78 65 -80 8 -1 21 -2
28 -3 61 -10 103 91 60 142 -20 23 -67 33 -99 21z m65 -48 c25 -25 17 -59 -15
-67 -46 -12 -74 44 -36 72 23 18 29 17 51 -5z"/>
<path d="M2418 1474 c-5 -104 -2 -109 65 -109 52 0 57 2 57 23 0 19 -5 22 -38
22 l-38 0 1 62 c0 56 -2 61 -22 63 -20 1 -22 -4 -25 -61z"/>
<path d="M2649 1528 c-25 -8 -47 -38 -50 -68 -4 -36 3 -51 35 -75 45 -34 87
-26 117 22 44 72 -21 149 -102 121z m68 -50 c13 -15 14 -23 5 -43 -22 -49 -94
-18 -75 32 13 35 44 40 70 11z"/>
<path d="M2882 1524 c-89 -37 -39 -175 57 -157 36 6 46 18 47 58 1 27 -2 33
-17 32 -11 -1 -20 -5 -20 -9 -1 -4 -2 -14 -3 -20 0 -7 -11 -14 -23 -16 -17 -2
-26 4 -35 23 -10 22 -9 29 10 47 19 20 24 20 47 8 22 -12 28 -12 35 0 11 18 1
40 -19 41 -9 0 -23 2 -32 4 -8 1 -30 -3 -47 -11z"/>
<path d="M3083 1532 c-6 -4 -11 -41 -11 -84 -1 -57 2 -78 13 -82 22 -8 27 8
28 89 2 72 -6 92 -30 77z"/>
<path d="M3198 1529 c-18 -11 -1 -38 22 -34 18 3 20 -1 20 -41 0 -31 -4 -44
-14 -44 -8 0 -17 6 -19 13 -6 14 -27 -9 -27 -31 0 -16 37 -30 66 -24 27 5 35
22 40 82 6 73 0 85 -42 85 -20 0 -41 -3 -46 -6z"/>
<path d="M3404 1502 c-8 -20 -24 -53 -34 -73 -25 -46 -26 -68 -2 -64 9 2 20 4
24 4 3 1 8 9 10 18 2 11 14 17 35 18 24 1 34 -4 42 -22 7 -14 16 -21 26 -17 8
3 15 7 15 8 0 0 -13 34 -29 75 -36 94 -64 111 -87 53z m35 -61 c-15 -5 -22 6
-14 19 6 9 10 9 16 -1 5 -8 4 -15 -2 -18z"/>
</g>
</svg>
